<?xml version="1.0" encoding="UTF-8"?><svg id="librecollab" xmlns="http://www.w3.org/2000/svg" viewBox="0 0 500 489.95"><defs><style>.cls-1{fill:#fff;}.cls-2{fill:#15171e;}.cls-3{fill:#0c945b;}</style></defs><g id="logo"><path id="shape" class="cls-2" d="M432.19,488.2L40.66,386.95C16.72,380.76,0,359.16,0,334.44V54.26C0,18.8,33.48-7.12,67.81,1.76l391.53,101.25c23.94,6.19,40.66,27.78,40.66,52.51v280.18c0,35.46-33.48,61.39-67.81,52.51Z"/><g id="text"><path class="cls-1" d="M200.75,273.91h-67.63c-3.78,0-6.85-3.07-6.85-6.85V96c0-5.44-1.41-9.57-4.24-12.39-2.82-2.82-6.85-4.24-12.08-4.24s-9.26,1.41-12.08,4.24c-2.82,2.82-4.24,6.96-4.24,12.39v189.21c0,5.23,1.46,9.31,4.39,12.24,2.93,2.93,7.01,4.39,12.24,4.39h90.66c-1.69-4.41-2.63-9.19-2.63-14.19s.88-9.45,2.46-13.74Z"/><path class="cls-3" d="M386.74,332.95c-19.81,0-35.93,16.05-36.07,35.82-7.96,2.28-16.23,3.44-24.83,3.44-15.9,0-29.29-3.29-40.16-9.88-10.88-6.59-19.14-16.21-24.79-28.87-1.54-3.45-2.85-7.11-3.97-10.96,12.34-6.74,20.73-19.83,20.73-34.86,0-8.32-2.58-16.04-6.98-22.43l-11.7,9.68c2.27,3.72,3.6,8.08,3.6,12.75,0,13.57-11.04,24.61-24.61,24.61-8.28,0-15.61-4.13-20.07-10.42-2.85-4.01-4.54-8.9-4.54-14.19s1.56-9.81,4.22-13.74c.41-.6.84-1.19,1.3-1.76l-8.15-13.32c-4.39,4.16-7.84,9.3-9.98,15.07-1.59,4.28-2.46,8.91-2.46,13.74s.94,9.78,2.63,14.19c3.84,9.99,11.61,18.06,21.41,22.28,2.08,8.5,4.94,16.43,8.59,23.78,8.47,17.05,20.66,30.18,36.55,39.38,15.89,9.21,35.03,13.81,57.42,13.81,12.76,0,24.99-1.78,36.71-5.33.23-.07.45-.15.67-.22,6.43,5.94,15.02,9.58,24.45,9.58,19.89,0,36.08-16.18,36.08-36.07s-16.18-36.08-36.08-36.08Z"/><path class="cls-3" d="M386.74,171.55c-8.89,0-17.04,3.24-23.33,8.6-.96-.31-1.91-.62-2.89-.91-11.4-3.34-23.27-5.02-35.61-5.02-16.74,0-31.75,2.62-45.03,7.84-13.29,5.23-24.47,12.82-33.57,22.75-9.1,9.94-16.06,21.86-20.87,35.77-.1.29-.18.59-.28.87l-28.27-28.29s-5.57,3.99-5.57,3.99c.3.5.77,1.25,1.35,2.19,1.09,1.76,2.61,4.23,4.45,7.21,4.68,7.58,11.37,18.38,17.81,28.81h0c1.09,1.76,2.17,3.51,3.24,5.23,2.6,4.21,5.1,8.24,7.33,11.86.16.26.32.53.48.78.32.52.64,1.04.95,1.54.03.04.05.09.08.13.33.53.65,1.05.96,1.56.21.35.42.69.63,1.02.13.22.27.44.4.65.13.22.26.42.39.63.5.82.98,1.58,1.42,2.3.76,1.23,1.43,2.32,1.99,3.23.1.15.18.3.27.44.18.29.35.56.5.81.04.06.08.12.11.18.14.23.26.42.37.61.05.09.12.19.16.27.14.22.26.42.35.57.49-.41,1.4-1.15,2.63-2.16.09-.07.18-.15.28-.23,1.26-1.03,2.81-2.31,4.63-3.81,0,0,0,0,0,0,2.41-1.98,5.26-4.32,8.36-6.87.45-.37.91-.74,1.36-1.12,2.01-1.65,4.1-3.37,6.26-5.14,1.73-1.42,3.5-2.87,5.28-4.34.59-.49,1.18-.97,1.77-1.46,11.98-9.85,24.21-19.9,30.11-24.76.4-.33.76-.63,1.1-.91.76-.62,1.38-1.13,1.8-1.49l-3.99-5.57-35.32,17.35c.63-1.71,1.3-3.38,2.03-5,5.65-12.55,13.91-22.12,24.79-28.71,10.87-6.59,24.26-9.88,40.16-9.88,8.65,0,16.94,1.12,24.85,3.34-.01.4-.03.8-.03,1.2,0,19.89,16.18,36.08,36.08,36.08s36.08-16.18,36.08-36.08-16.18-36.08-36.08-36.08Z"/><path class="cls-1" d="M386.74,346.66c-12.34,0-22.37,10.04-22.37,22.37s10.04,22.37,22.37,22.37,22.37-10.04,22.37-22.37-10.04-22.37-22.37-22.37Z"/><path class="cls-1" d="M386.74,185.26c-12.34,0-22.37,10.04-22.37,22.37s10.04,22.37,22.37,22.37,22.37-10.04,22.37-22.37-10.04-22.37-22.37-22.37Z"/><path class="cls-1" d="M237.97,312.26c13.57,0,24.61-11.04,24.61-24.61,0-4.67-1.33-9.03-3.6-12.75l-25.51,21.11-14.59-23.85c-3.44,4.23-5.51,9.62-5.51,15.49,0,13.57,11.04,24.61,24.61,24.61Z"/></g></g></svg>